# xmcd
#
# Track frame offsets:
#	150
#	13755
#	33735
#	65520
#	107862
#	127832
#	154485
#	178880
#	199562
#	230135
#	255147
#	280242
#
# Disc length: 4261
#
# Revision: 2
# Processed by: cddbd v1.5.1PL0 Copyright (c) Steve Scherf et al.
# Submitted via: CDex 1.51
# Normalized: r0:DSETVAR1,TSWAP
#
DISCID=a910a30c
DTITLE=Various Artist - JAZZ PIANO On Blue Note
DYEAR=1997
DGENRE=Jazz
TTITLE0=THELONIOUS MONK - WELL YOU NEEDN'T
TTITLE1=HERBIE NICHOLS - THE GIG
TTITLE2=HORACE SILVER - SENOR BLUES
TTITLE3=SONNY CLARK - COOL STRUTTIN'
TTITLE4=BUD POWELL - CELOPATRA'S DREAM
TTITLE5=THE THREE SOUNDS - SATIN DOLL
TTITLE6=DUKE PEARSON - I'M A FOOL TO WANT YOU
TTITLE7=HORACE PARLAN - US THREE
TTITLE8=DUKE JORDAN - SI-JOYA
TTITLE9=KENNY DREW - BALLADE
TTITLE10=HERBIE HANCOCK - CANTALOUPE ISLAND
TTITLE11=McCOY TYNER - PASSION DANCE
EXTD=YEAR: 1997
EXTT0=
EXTT1=
EXTT2=
EXTT3=
EXTT4=
EXTT5=
EXTT6=
EXTT7=
EXTT8=
EXTT9=
EXTT10=
EXTT11=
PLAYORDER=
